<svg width="327" height="311" viewBox="0 0 327 311" fill="none" xmlns="http://www.w3.org/2000/svg">
<mask id="mask0_370_209" style="mask-type:alpha" maskUnits="userSpaceOnUse" x="0" y="0" width="327" height="311">
<rect x="0.167969" width="326.833" height="311" fill="#D9D9D9"/>
</mask>
<g mask="url(#mask0_370_209)">
<path opacity="0.15" d="M204.465 290.567C210.042 289.909 215.516 288.142 220.539 285.232L244.443 271.444L268.347 285.232C273.37 288.142 278.844 289.909 284.422 290.567C271.465 293.027 258.093 294.378 244.443 294.378C230.794 294.378 217.421 293.027 204.465 290.567ZM35.3013 41.4816C35.9595 47.0592 37.7263 52.4982 40.6364 57.5215L54.4244 81.4254L40.6364 105.329C37.7263 110.353 35.9595 115.792 35.3013 121.369C32.8416 108.413 31.4905 95.0749 31.4905 81.4254C31.4905 67.776 32.8416 54.4383 35.3013 41.4816ZM284.387 -127.717C278.809 -127.058 273.37 -125.291 268.347 -122.381L244.443 -108.593L220.539 -122.381C215.516 -125.291 210.077 -127.058 204.499 -127.717C217.456 -130.176 230.794 -131.527 244.443 -131.527C258.093 -131.527 271.43 -130.176 284.387 -127.717ZM448.25 105.329L434.462 81.4254L448.25 57.5215C451.16 52.4982 452.927 47.0592 453.585 41.4816C456.045 54.4383 457.396 67.776 457.396 81.4254C457.396 95.0749 456.045 108.413 453.585 121.369C452.927 115.792 451.16 110.353 448.25 105.329ZM408.999 204.028V176.418L432.903 162.629C437.926 159.719 442.153 155.909 445.513 151.44C436.61 176.937 423.03 200.183 405.743 220.241C407.821 215.253 408.999 209.779 408.999 204.028ZM325.647 269.885L339.435 245.981H367.046C372.762 245.981 378.271 244.803 383.259 242.725C363.201 260.012 339.92 273.592 314.457 282.495C318.961 279.135 322.772 274.909 325.647 269.885ZM288.544 245.981H331.987L320.035 266.663C315.289 274.874 307.633 280.729 298.487 283.188C289.341 285.648 279.745 284.401 271.534 279.655L250.852 267.703L288.51 245.981H288.544ZM213.264 245.981H275.657L244.478 263.996L213.299 245.981H213.264ZM190.4 283.188C181.254 280.729 173.598 274.874 168.851 266.663L156.899 245.981H200.342L238 267.703L217.318 279.655C209.107 284.401 199.545 285.648 190.365 283.188M121.806 245.981H149.417L163.205 269.885C166.08 274.909 169.925 279.135 174.394 282.495C148.932 273.592 125.651 260.012 105.593 242.725C110.581 244.803 116.055 245.981 121.806 245.981ZM55.9488 162.629L79.8527 176.418V204.028C79.8527 209.779 81.0305 215.253 83.1091 220.241C65.8221 200.183 52.2419 176.937 43.3386 151.44C46.699 155.943 50.9601 159.754 55.9488 162.629ZM79.8527 125.492V168.969L59.1706 157.017C50.9601 152.271 45.0707 144.615 42.6457 135.469C40.186 126.323 41.4332 116.762 46.1793 108.551L58.1313 87.8691L79.8527 125.492ZM79.8527 50.2118V112.604L61.8381 81.4254L79.8527 50.2464V50.2118ZM42.6457 27.3472C45.1054 18.2013 50.9601 10.5451 59.1706 5.79898L79.8527 -6.15298V37.3244L58.1313 74.9471L46.1793 54.265C41.4332 46.0546 40.186 36.493 42.6457 27.3472ZM79.8527 -41.2121V-13.6013L55.9488 0.186768C50.9255 3.06216 46.699 6.90758 43.3386 11.3766C52.2419 -14.0863 65.8568 -37.3666 83.1091 -57.4251C81.0305 -52.4365 79.8527 -46.9629 79.8527 -41.2121ZM163.205 -107.069L149.417 -83.1652H121.806C116.055 -83.1652 110.581 -81.9873 105.593 -79.9087C125.651 -97.1957 148.932 -110.776 174.394 -119.679C169.891 -116.319 166.08 -112.058 163.205 -107.069ZM200.308 -83.1652H156.865L168.817 -103.847C173.563 -112.058 181.219 -117.947 190.365 -120.372C193.414 -121.204 196.531 -121.585 199.615 -121.585C205.747 -121.585 211.844 -119.956 217.318 -116.804L238 -104.852L200.342 -83.1305L200.308 -83.1652ZM275.588 -83.1652H213.195L244.374 -101.18L275.553 -83.1652H275.588ZM298.452 -120.372C307.598 -117.912 315.254 -112.058 320 -103.847L331.952 -83.1652H288.51L250.852 -104.887L271.534 -116.839C277.008 -119.991 283.071 -121.619 289.237 -121.619C292.32 -121.619 295.438 -121.204 298.487 -120.407M367.046 -83.1998H339.435L325.647 -107.104C322.772 -112.092 318.961 -116.353 314.457 -119.714C339.92 -110.811 363.201 -97.2304 383.259 -79.9433C378.271 -82.0219 372.797 -83.1998 367.046 -83.1998ZM432.903 0.152115L408.999 -13.6359V-41.2467C408.999 -46.9975 407.821 -52.4711 405.743 -57.4598C423.03 -37.4013 436.61 -14.1209 445.513 11.3419C442.153 6.8383 437.892 3.02751 432.903 0.152115ZM408.999 37.2898V-6.18762L429.681 5.76434C437.892 10.5105 443.781 18.1667 446.206 27.3125C448.666 36.4584 447.419 46.0199 442.673 54.2304L430.721 74.9125L408.999 37.2898ZM408.999 112.57V50.1771L427.014 81.3561L408.999 112.535V112.57ZM408.999 125.457L430.721 87.8345L442.673 108.517C447.419 116.727 448.666 126.289 446.206 135.434C443.747 144.58 437.892 152.236 429.681 156.983L408.999 168.935V125.457ZM371.342 190.656L402.521 136.612V172.641L371.342 190.656ZM364.898 201.846L402.556 180.124V203.994C402.556 223.567 386.62 239.468 367.081 239.468H343.177L364.898 201.846ZM353.743 208.289L335.729 239.468H299.734L353.743 208.289ZM353.743 -45.5425L299.734 -76.7215H335.729L353.743 -45.5425ZM371.377 -27.909L402.556 -9.89445V26.1346L371.377 -27.909ZM402.556 -17.3428L364.898 -39.0642L343.177 -76.6868H367.081C386.654 -76.6868 402.556 -60.7509 402.556 -41.1774V-17.3081V-17.3428ZM117.545 -27.909L86.3656 26.1346V-9.89445L117.545 -27.909ZM123.988 -39.0988L86.331 -17.3774V-41.2467C86.331 -60.8202 102.267 -76.7561 121.84 -76.7561H145.71L123.988 -39.1335V-39.0988ZM135.143 -45.5425L153.158 -76.7215H189.152L135.143 -45.5425ZM86.331 81.3908C86.331 -5.80655 157.246 -76.7215 244.443 -76.7215C331.641 -76.7215 402.556 -5.80655 402.556 81.3908C402.556 168.588 331.641 239.503 244.443 239.503C157.246 239.503 86.331 168.588 86.331 81.3908ZM135.143 208.324L189.152 239.503H153.158L135.143 208.324ZM117.51 190.691L86.331 172.676V136.647L117.51 190.691ZM86.331 180.124L123.988 201.846L145.71 239.468H121.84C102.267 239.468 86.331 223.567 86.331 203.994V180.124ZM244.443 -137.971C123.261 -137.971 25.0469 -39.757 25.0469 81.4254C25.0469 202.608 123.295 300.822 244.443 300.822C365.591 300.822 463.84 202.573 463.84 81.4254C463.84 -39.7224 365.626 -137.971 244.443 -137.971Z" fill="#77F4EA"/>
</g>
</svg>
