<svg width="63" height="63" viewBox="0 0 63 63" fill="none" xmlns="http://www.w3.org/2000/svg">
<path d="M25.7601 61.5277C26.5609 61.4332 27.3468 61.1795 28.068 60.7617L31.5 58.7821L34.932 60.7617C35.6532 61.1795 36.4391 61.4332 37.2399 61.5277C35.3797 61.8809 33.4597 62.0748 31.5 62.0748C29.5403 62.0748 27.6203 61.8809 25.7601 61.5277ZM1.47229 25.765C1.56679 26.5658 1.82046 27.3468 2.23827 28.068L4.21791 31.5L2.23827 34.932C1.82046 35.6532 1.56679 36.4342 1.47229 37.235C1.11914 35.3747 0.925153 33.4597 0.925153 31.5C0.925153 29.5403 1.11914 27.6253 1.47229 25.765ZM37.235 1.47229C36.4342 1.56679 35.6532 1.82046 34.932 2.23828L31.5 4.21791L28.068 2.23828C27.3468 1.82046 26.5658 1.56679 25.765 1.47229C27.6253 1.11914 29.5403 0.925154 31.5 0.925154C33.4597 0.925154 35.3747 1.11914 37.235 1.47229ZM60.7617 34.932L58.7821 31.5L60.7617 28.068C61.1795 27.3468 61.4332 26.5658 61.5277 25.765C61.8809 27.6253 62.0748 29.5403 62.0748 31.5C62.0748 33.4597 61.8809 35.3747 61.5277 37.235C61.4332 36.4342 61.1795 35.6532 60.7617 34.932ZM55.1262 49.1028V45.1386L58.5583 43.1589C59.2795 42.7411 59.8863 42.194 60.3688 41.5523C59.0905 45.2132 57.1407 48.5507 54.6587 51.4306C54.9571 50.7144 55.1262 49.9285 55.1262 49.1028ZM43.1589 58.5583L45.1386 55.1262H49.1028C49.9235 55.1262 50.7143 54.9571 51.4306 54.6587C48.5507 57.1407 45.2082 59.0905 41.5523 60.3688C42.199 59.8863 42.7461 59.2795 43.1589 58.5583ZM37.8318 55.1262H44.0692L42.3531 58.0957C41.6717 59.2745 40.5725 60.1151 39.2594 60.4683C37.9462 60.8214 36.5685 60.6423 35.3896 59.9609L32.4202 58.2449L37.8269 55.1262H37.8318ZM27.0234 55.1262H35.9815L31.505 57.7127L27.0284 55.1262H27.0234ZM23.7406 60.4683C22.4275 60.1151 21.3283 59.2745 20.6469 58.0957L18.9308 55.1262H25.1682L30.5748 58.2449L27.6054 59.9609C26.4266 60.6423 25.0538 60.8214 23.7357 60.4683M13.8922 55.1262H17.8565L19.8361 58.5583C20.2489 59.2795 20.801 59.8863 21.4427 60.3688C17.7868 59.0905 14.4443 57.1407 11.5644 54.6587C12.2807 54.9571 13.0666 55.1262 13.8922 55.1262ZM4.43676 43.1589L7.86878 45.1386V49.1028C7.86878 49.9285 8.0379 50.7144 8.33633 51.4306C5.85433 48.5507 3.90455 45.2132 2.62624 41.5523C3.10872 42.199 3.72051 42.7461 4.43676 43.1589ZM7.86878 37.8269V44.0692L4.89934 42.3531C3.72051 41.6717 2.87494 40.5725 2.52676 39.2594C2.17361 37.9462 2.35268 36.5734 3.03411 35.3946L4.75012 32.4252L7.86878 37.8269ZM7.86878 27.0185V35.9766L5.28233 31.5L7.86878 27.0234V27.0185ZM2.52676 23.7357C2.87991 22.4225 3.72051 21.3233 4.89934 20.6419L7.86878 18.9259V25.1682L4.75012 30.5699L3.03411 27.6004C2.35268 26.4216 2.17361 25.0488 2.52676 23.7357ZM7.86878 13.8922V17.8565L4.43676 19.8361C3.71554 20.2489 3.10872 20.801 2.62624 21.4427C3.90455 17.7868 5.85931 14.4443 8.33633 11.5644C8.0379 12.2807 7.86878 13.0666 7.86878 13.8922ZM19.8361 4.43676L17.8565 7.86878H13.8922C13.0666 7.86878 12.2807 8.0379 11.5644 8.33633C14.4443 5.85434 17.7868 3.90455 21.4427 2.62624C20.7961 3.10872 20.2489 3.72051 19.8361 4.43676ZM25.1632 7.86878H18.9259L20.6419 4.89934C21.3233 3.72051 22.4225 2.87494 23.7357 2.52676C24.1734 2.40739 24.621 2.35268 25.0637 2.35268C25.9441 2.35268 26.8195 2.58645 27.6054 3.03908L30.5748 4.75509L25.1682 7.87376L25.1632 7.86878ZM35.9716 7.86878H27.0135L31.49 5.28233L35.9666 7.86878H35.9716ZM39.2544 2.52676C40.5675 2.87991 41.6667 3.72051 42.3482 4.89934L44.0642 7.86878H37.8269L32.4202 4.75012L35.3896 3.03411C36.1755 2.58148 37.0459 2.3477 37.9313 2.3477C38.374 2.3477 38.8216 2.40739 39.2594 2.52179M49.1028 7.86381H45.1386L43.1589 4.43179C42.7461 3.71554 42.199 3.10374 41.5523 2.62127C45.2082 3.89957 48.5507 5.84936 51.4306 8.33136C50.7143 8.03292 49.9285 7.86381 49.1028 7.86381ZM58.5583 19.8311L55.1262 17.8515V13.8873C55.1262 13.0616 54.9571 12.2757 54.6587 11.5595C57.1407 14.4394 59.0905 17.7819 60.3688 21.4377C59.8863 20.7911 59.2745 20.244 58.5583 19.8311ZM55.1262 25.1632V18.9209L58.0957 20.6369C59.2745 21.3183 60.1201 22.4176 60.4683 23.7307C60.8214 25.0438 60.6423 26.4166 59.9609 27.5955L58.2449 30.5649L55.1262 25.1632ZM55.1262 35.9716V27.0135L57.7127 31.49L55.1262 35.9666V35.9716ZM55.1262 37.8219L58.2449 32.4202L59.9609 35.3896C60.6423 36.5685 60.8214 37.9413 60.4683 39.2544C60.1151 40.5675 59.2745 41.6667 58.0957 42.3482L55.1262 44.0642V37.8219ZM49.7196 47.1828L54.1961 39.4235V44.5964L49.7196 47.1828ZM48.7944 48.7894L54.2011 45.6708V49.0978C54.2011 51.9081 51.9131 54.1911 49.1078 54.1911H45.6757L48.7944 48.7894ZM47.1928 49.7146L44.6063 54.1911H39.4384L47.1928 49.7146ZM47.1928 13.2705L39.4384 8.79394H44.6063L47.1928 13.2705ZM49.7245 15.8022L54.2011 18.3887V23.5616L49.7245 15.8022ZM54.2011 17.3193L48.7944 14.2006L45.6757 8.79891H49.1078C51.918 8.79891 54.2011 11.0869 54.2011 13.8972V17.3243V17.3193ZM13.2804 15.8022L8.80388 23.5616V18.3887L13.2804 15.8022ZM14.2056 14.1956L8.79891 17.3143V13.8873C8.79891 11.077 11.0869 8.78896 13.8972 8.78896H17.3243L14.2056 14.1907V14.1956ZM15.8072 13.2705L18.3937 8.79394H23.5616L15.8072 13.2705ZM8.79891 31.495C8.79891 18.9756 18.9806 8.79394 31.5 8.79394C44.0194 8.79394 54.2011 18.9756 54.2011 31.495C54.2011 44.0144 44.0194 54.1961 31.5 54.1961C18.9806 54.1961 8.79891 44.0144 8.79891 31.495ZM15.8072 49.7196L23.5616 54.1961H18.3937L15.8072 49.7196ZM13.2755 47.1878L8.79891 44.6014V39.4285L13.2755 47.1878ZM8.79891 45.6708L14.2056 48.7894L17.3243 54.1911H13.8972C11.0869 54.1911 8.79891 51.9081 8.79891 49.0978V45.6708ZM31.5 0C14.1011 0 0 14.1011 0 31.5C0 48.8989 14.1061 63 31.5 63C48.8939 63 63 48.8939 63 31.5C63 14.1061 48.8989 0 31.5 0Z" fill="#77F4EA"/>
</svg>
